#!OML:ASF F:\VICON\USERDATA\INSTALL\rory3\rory3.ASF
:FULLY-SPECIFIED
:DEGREES
1247
root 0.987183 15.7183 3.06558 5.07938 -46.7732 12.5545
lowerback -0.646701 5.1129 5.81869
upperback 5.88923 6.62246 -1.29785
thorax 7.37809 3.62996 -4.09214
lowerneck 0.698368 -9.35167 -12.4301
upperneck 47.0642 -18.3754 8.54455
head 21.1539 -8.94623 3.54408
rclavicle 6.12257e-014 1.59028e-015
rhumerus -20.3554 26.2727 -96.4968
rradius 20.8824
rwrist 17.0768
rhand -25.2269 -55.2529
rfingers 7.12502
rthumb 1.29241 -85.2287
lclavicle 6.12257e-014 1.59028e-015
lhumerus -51.6243 -83.6774 127.689
lradius 85.1999
lwrist 22.9544
lhand 2.3829 -19.39
lfingers 7.12502
lthumb 27.8707 8.56234
rfemur -33.5204 2.48515 -5.40962
rtibia 75.6378
rfoot -2.06737 -8.49371
rtoes -34.2551
lfemur -49.338 -18.621 -29.5218
ltibia 57.6139
lfoot -21.0449 1.23449
ltoes 17.7887
1248
root 0.987741 15.721 3.06737 5.06802 -46.7738 12.5601
lowerback -0.684944 5.12548 5.88058
upperback 5.9089 6.63727 -1.34468
thorax 7.43815 3.64443 -4.16902
lowerneck 0.691439 -9.34573 -12.4153
upperneck 47.0492 -18.4029 8.62853
head 21.1693 -8.94795 3.57923
rclavicle -6.44062e-014 3.81667e-014
rhumerus -20.3479 26.2029 -96.5121
rradius 20.8976
rwrist 17.077
rhand -25.2079 -55.2508
rfingers 7.12502
rthumb 1.31073 -85.2266
lclavicle -6.44062e-014 3.81667e-014
lhumerus -52.074 -83.7037 128.102
lradius 85.1765
lwrist 22.8775
lhand 1.84717 -19.2316
lfingers 7.12502
lthumb 27.3584 8.80274
rfemur -33.4416 2.49924 -5.43633
rtibia 75.5941
rfoot -2.41349 -8.10907
rtoes -35.7424
lfemur -49.2911 -18.6655 -29.5218
ltibia 57.5709
lfoot -21.0679 1.30215
ltoes 17.7689
1249
root 0.990768 15.7207 3.05795 5.14211 -46.6853 12.4408
lowerback -0.560071 5.07829 5.9324
upperback 5.88149 6.57678 -1.30964
thorax 7.33047 3.61351 -4.1797
lowerneck 0.740922 -9.29845 -12.4862
upperneck 47.0083 -18.3394 8.69246
head 21.1329 -8.93346 3.64025
rclavicle -1.11319e-013 2.8625e-014
rhumerus -20.333 26.0114 -96.4616
rradius 20.8205
rwrist 17.3143
rhand -25.3024 -55.0655
rfingers 7.12502
rthumb 1.21946 -85.0418
lclavicle -1.11319e-013 2.8625e-014
lhumerus -51.6274 -83.6616 127.645
lradius 85.1567
lwrist 22.8924
lhand 2.079 -19.401
lfingers 7.12502
lthumb 27.5801 8.59812
rfemur -33.4589 2.49554 -5.29586
rtibia 75.6196
rfoot -1.95853 -8.50356
rtoes -33.6999
lfemur -49.3288 -18.613 -29.4339
ltibia 57.5739
lfoot -21.0499 1.40864
ltoes 16.7655
1250
root 0.994536 15.7195 3.0472 5.29491 -46.6055 12.278
lowerback -0.224421 5.0505 5.84856
upperback 5.70841 6.56044 -1.2295
thorax 6.92524 3.58588 -4.09183
lowerneck 0.832749 -9.31166 -12.3836
upperneck 47.0637 -18.3283 8.53537
head 21.0849 -8.92884 3.54937
rclavicle -8.82604e-014 -2.8625e-014
rhumerus -20.4428 25.5836 -96.4343
rradius 20.6346
rwrist 17.7028
rhand -25.5105 -54.9918
rfingers 7.12502
rthumb 1.01852 -84.9691
lclavicle -8.82604e-014 -2.8625e-014
lhumerus -52.3461 -83.5532 128.393
lradius 85.148
lwrist 22.9563
lhand 2.96256 -19.7463
lfingers 7.12502
lthumb 28.4248 8.11494
rfemur -33.5989 2.44944 -5.1062
rtibia 75.7051
rfoot -1.05825 -9.01763
rtoes -28.9449
lfemur -49.4702 -18.5628 -29.2767
ltibia 57.6347
lfoot -21.0308 1.30974
ltoes 16.4543
1251
root 0.996998 15.721 3.04439 5.48493 -46.5489 12.0681
lowerback 0.513604 4.96692 5.48461
upperback 5.19463 6.50107 -1.01754
thorax 5.86803 3.49908 -3.77356
lowerneck 1.13353 -9.29821 -12.2632
upperneck 47.3865 -18.2637 8.10298
head 21.1099 -8.94043 3.34406
rclavicle -2.94201e-014 1.27222e-014
rhumerus -21.396 25.5199 -96.6843
rradius 20.6974
rwrist 17.9085
rhand -25.4937 -55.1133
rfingers 7.12502
rthumb 1.03476 -85.0906
lclavicle -2.94201e-014 1.27222e-014
lhumerus -55.909 -82.7786 132.027
lradius 85.0723
lwrist 22.8657
lhand 3.17345 -19.9918
lfingers 7.12502
lthumb 28.6263 7.83562
rfemur -33.6532 2.43048 -4.91426
rtibia 75.7848
rfoot -1.62668 -9.01636
rtoes -28.5658
lfemur -49.5888 -18.6439 -29.0662
ltibia 57.7344
lfoot -21.0454 1.15662
ltoes 17.2535
1252
root 1.00162 15.7152 3.02454 5.78894 -46.4454 11.6474
lowerback 0.805443 4.9646 5.67017
upperback 5.14825 6.50646 -0.95562
thorax 5.66854 3.50351 -3.84009
lowerneck 1.04264 -9.36469 -12.1507
upperneck 47.3858 -18.3896 8.12519
head 21.1527 -8.96266 3.30434
rclavicle -1.38354e-013 3.65764e-014
rhumerus -21.3794 25.2816 -96.6381
rradius 20.7336
rwrist 18.1758
rhand -25.312 -55.0508
rfingers 7.12502
rthumb 1.21026 -85.0271
lclavicle -1.38354e-013 3.65764e-014
lhumerus -56.0971 -82.8694 132.227
lradius 85.0068
lwrist 22.7791
lhand 2.94286 -20.0097
lfingers 7.12502
lthumb 28.406 7.85466
rfemur -33.7719 2.50958 -4.5154
rtibia 75.9437
rfoot -1.78384 -9.15358
rtoes -28.649
lfemur -49.7924 -18.6128 -28.6721
ltibia 57.87
lfoot -20.9685 0.942893
ltoes 17.9712
1253
root 1.00863 15.7035 2.99144 6.04046 -46.3138 11.3264
lowerback 1.13762 4.90366 5.71766
upperback 5.08892 6.43867 -0.863543
thorax 5.40264 3.46217 -3.8093
lowerneck 1.02761 -9.32954 -12.1919
upperneck 47.3291 -18.3469 8.20538
head 21.1276 -8.946 3.35956
rclavicle 8.90555e-014 -2.22639e-014
rhumerus -21.3443 25.3741 -96.6282
rradius 20.7447
rwrist 18.1954
rhand -25.4979 -54.7267
rfingers 7.12502
rthumb 1.03073 -84.7039
lclavicle 8.90555e-014 -2.22639e-014
lhumerus -55.5235 -82.8771 131.701
lradius 84.9894
lwrist 22.7578
lhand 3.49483 -19.982
lfingers 7.12502
lthumb 28.9333 7.79321
rfemur -34.0563 2.53931 -4.15577
rtibia 76.1628
rfoot -1.23602 -9.33617
rtoes -26.9305
lfemur -50.0743 -18.4151 -28.3959
ltibia 57.9898
lfoot -20.8723 0.823094
ltoes 18.094
1254
root 1.01148 15.7045 2.98327 6.04805 -46.3248 11.3559
lowerback 1.24252 4.89402 5.62794
upperback 5.04205 6.43393 -0.855624
thorax 5.28035 3.45205 -3.76474
lowerneck 1.08124 -9.29478 -12.2384
upperneck 47.2963 -18.2945 8.2368
head 21.0865 -8.93411 3.3973
rclavicle 2.06736e-014 -3.18055e-015
rhumerus -21.3912 25.4087 -96.6518
rradius 20.8073
rwrist 18.0451
rhand -25.558 -54.5609
rfingers 7.12502
rthumb 0.972612 -84.5385
lclavicle 2.06736e-014 -3.18055e-015
lhumerus -55.7008 -82.8695 131.869
lradius 85.0373
lwrist 22.7524
lhand 4.00742 -19.9395
lfingers 7.12502
lthumb 29.4228 7.75073
rfemur -34.2316 2.50761 -4.14199
rtibia 76.2432
rfoot -1.51422 -9.23355
rtoes -27.6774
lfemur -50.1521 -18.328 -28.4755
ltibia 58.0215
lfoot -20.9187 1.09999
ltoes 17.8232
